<?xml version="1.0" encoding="UTF-8"?>
<svg width="1200pt" height="1200pt" version="1.1" viewBox="0 0 1200 1200" xmlns="http://www.w3.org/2000/svg">
 <path d="m962.53 491.63c0-60.469-49.219-109.78-109.78-109.78h-216c-5.0625 0-9.8438-1.7812-13.547-5.1562l-54.375-47.859c-12.469-11.062-28.688-17.156-45.375-17.156h-176.16c-60.469 0-109.78 49.219-109.78 109.78v357c0 60.469 49.219 109.78 109.78 109.78h505.55c60.469 0 109.78-49.219 109.78-109.78v-286.78zm-48 286.82c0 34.078-27.703 61.781-61.781 61.781h-505.45c-34.078 0-61.781-27.703-61.781-61.781v-357c0-34.078 27.703-61.781 61.781-61.781h176.16c5.0625 0 9.8438 1.7812 13.547 5.1562l54.375 47.859c12.469 11.062 28.688 17.156 45.375 17.156h216c34.078 0 61.781 27.703 61.781 61.781z"/>
</svg>
