<svg xmlns="http://www.w3.org/2000/svg" data-name="Layer 1" viewBox="0 0 100 125" x="0px" y="0px"><path d="M86.32,93.68H59.79a2.49,2.49,0,0,1-2.5-2.5V74.12H42.72V91.18a2.5,2.5,0,0,1-2.5,2.5H13.68A8.69,8.69,0,0,1,5,85V47.15a10,10,0,0,1,3.37-7.48L43.12,8.93a10.4,10.4,0,0,1,13.76,0L91.63,39.67A10,10,0,0,1,95,47.15V85A8.69,8.69,0,0,1,86.32,93.68Zm-24-5h24A3.68,3.68,0,0,0,90,85V47.15a5,5,0,0,0-1.68-3.74L53.57,12.68a5.37,5.37,0,0,0-7.14,0L11.68,43.41A5,5,0,0,0,10,47.15V85a3.68,3.68,0,0,0,3.68,3.68h24V71.62a2.49,2.49,0,0,1,2.5-2.5H59.79a2.5,2.5,0,0,1,2.5,2.5Z"/><text x="0" y="115" fill="#000000" font-size="5px" font-weight="bold" font-family="'Helvetica Neue', Helvetica, Arial-Unicode, Arial, Sans-serif">Created by fihdxicon</text><text x="0" y="120" fill="#000000" font-size="5px" font-weight="bold" font-family="'Helvetica Neue', Helvetica, Arial-Unicode, Arial, Sans-serif">from the Noun Project</text></svg>