<svg xmlns="http://www.w3.org/2000/svg" xmlns:xlink="http://www.w3.org/1999/xlink" version="1.1" x="0px" y="0px" viewBox="0 0 10 12.5" enable-background="new 0 0 10 10" xml:space="preserve"><g><path d="M2.314,3.321h5.371c0.186,0,0.336-0.149,0.336-0.335S7.871,2.65,7.686,2.65H2.314c-0.186,0-0.336,0.15-0.336,0.336   S2.129,3.321,2.314,3.321z"/><path d="M7.686,6.678H2.314c-0.186,0-0.336,0.15-0.336,0.336S2.129,7.35,2.314,7.35h5.371c0.186,0,0.336-0.15,0.336-0.336   S7.871,6.678,7.686,6.678z"/><path d="M7.686,4.664H2.314c-0.186,0-0.336,0.15-0.336,0.336s0.15,0.336,0.336,0.336h5.371c0.186,0,0.336-0.15,0.336-0.336   S7.871,4.664,7.686,4.664z"/></g><text x="0" y="25" fill="#000000" font-size="5px" font-weight="bold" font-family="'Helvetica Neue', Helvetica, Arial-Unicode, Arial, Sans-serif">Created by verry poernomo</text><text x="0" y="30" fill="#000000" font-size="5px" font-weight="bold" font-family="'Helvetica Neue', Helvetica, Arial-Unicode, Arial, Sans-serif">from the Noun Project</text></svg>