<svg xmlns="http://www.w3.org/2000/svg" viewBox="0 0 32 40" x="0px" y="0px"><g data-name="Layer 1"><path d="M25.92,12.89a1.43,1.43,0,0,0-.64-1.16L16.84,5.81a1.51,1.51,0,0,0-1.7,0l-8.4,5.88a1.45,1.45,0,0,0-.66,1.18,2,2,0,0,0-.08.55v11a2,2,0,0,0,2,2h5a1,1,0,0,0,1-1v-4a2,2,0,0,1,2-2,2,2,0,0,1,2,2v4a1,1,0,0,0,1,1h5a2,2,0,0,0,2-2v-11A2,2,0,0,0,25.92,12.89Z"/><path d="M24.14,13.36l0,0Z"/><path d="M7.88,13.35h0Z"/><path d="M8.07,12.82Z"/></g><text x="0" y="47" fill="#000000" font-size="5px" font-weight="bold" font-family="'Helvetica Neue', Helvetica, Arial-Unicode, Arial, Sans-serif">Created by Bondan siswanto</text><text x="0" y="52" fill="#000000" font-size="5px" font-weight="bold" font-family="'Helvetica Neue', Helvetica, Arial-Unicode, Arial, Sans-serif">from the Noun Project</text></svg>