<svg xmlns="http://www.w3.org/2000/svg" xmlns:xlink="http://www.w3.org/1999/xlink" xmlns:serif="http://www.serif.com/" viewBox="0 0 44 55" version="1.1" xml:space="preserve" style="" x="0px" y="0px" fill-rule="evenodd" clip-rule="evenodd" stroke-linejoin="round" stroke-miterlimit="2"><g transform="matrix(1,0,0,1,0,-180)"><g transform="matrix(1,0,0,1,0,180)"><rect x="0" y="0" width="44" height="44" style="" fill="none"/><g transform="matrix(1,0,0,1,0,-180)"><path d="M4,214L4,190C4,188.896 4.896,188 6,188L18,188C21,188 20.073,192 24,192L38,192C39.104,192 40,192.896 40,194L40,214C40,215.104 39.104,216 38,216L6,216C4.896,216 4,215.104 4,214Z"/></g></g></g><text x="0" y="59" fill="#000000" font-size="5px" font-weight="bold" font-family="'Helvetica Neue', Helvetica, Arial-Unicode, Arial, Sans-serif">Created by Paweł Gleń</text><text x="0" y="64" fill="#000000" font-size="5px" font-weight="bold" font-family="'Helvetica Neue', Helvetica, Arial-Unicode, Arial, Sans-serif">from the Noun Project</text></svg>