<svg xmlns="http://www.w3.org/2000/svg" xmlns:xlink="http://www.w3.org/1999/xlink" version="1.1" x="0px" y="0px" viewBox="0 0 96 120" style="enable-background:new 0 0 96 96;" xml:space="preserve"><g><g><path d="M84,23H40.9l-4.6-4.6c-1.5-1.5-3.6-2.4-5.7-2.4H12c-4.4,0-8,3.6-8,8v48c0,4.4,3.6,8,8,8h72c4.4,0,8-3.6,8-8V39v-8    C92,26.6,88.4,23,84,23z M84,27c2.2,0,4,1.8,4,4v1.1c-1.2-0.7-2.5-1.1-4-1.1H50.5c-1.1,0-2.1-0.4-2.8-1.2L44.8,27H84z M88,72    c0,2.2-1.8,4-4,4H12c-2.2,0-4-1.8-4-4V24c0-2.2,1.8-4,4-4h18.6c1.1,0,2.1,0.4,2.8,1.2l11.4,11.5c1.5,1.5,3.5,2.4,5.7,2.4H84    c2.2,0,4,1.8,4,4V72z"/></g></g><text x="0" y="111" fill="#000000" font-size="5px" font-weight="bold" font-family="'Helvetica Neue', Helvetica, Arial-Unicode, Arial, Sans-serif">Created by aptfahmi</text><text x="0" y="116" fill="#000000" font-size="5px" font-weight="bold" font-family="'Helvetica Neue', Helvetica, Arial-Unicode, Arial, Sans-serif">from the Noun Project</text></svg>