<svg xmlns="http://www.w3.org/2000/svg" xmlns:xlink="http://www.w3.org/1999/xlink" version="1.1" x="0px" y="0px" viewBox="0 0 100 125" enable-background="new 0 0 100 100" xml:space="preserve"><path d="M50,10c-22.092,0-40,17.908-40,40s17.908,40,40,40s40-17.908,40-40S72.092,10,50,10z M73.768,61.662  c-0.832,0.832-1.922,1.248-3.011,1.248s-2.18-0.416-3.011-1.248L50.001,43.918L32.257,61.662c-1.664,1.664-4.359,1.664-6.023,0  c-1.664-1.664-1.664-4.359,0-6.023l20.756-20.756c1.664-1.664,4.359-1.664,6.023,0l20.756,20.756  C75.432,57.303,75.432,59.998,73.768,61.662z"/><text x="0" y="115" fill="#000000" font-size="5px" font-weight="bold" font-family="'Helvetica Neue', Helvetica, Arial-Unicode, Arial, Sans-serif">Created by Kick</text><text x="0" y="120" fill="#000000" font-size="5px" font-weight="bold" font-family="'Helvetica Neue', Helvetica, Arial-Unicode, Arial, Sans-serif">from the Noun Project</text></svg>